<svg width="2632" height="1566" viewBox="0 0 2632 1566" fill="none" xmlns="http://www.w3.org/2000/svg">
<g style="mix-blend-mode:exclusion" opacity="0.04">
<path d="M443.536 1484.55C800.996 1194.15 886.245 954.84 896.064 787.662C907.018 601.085 828.92 420.761 886.304 393.258C923.047 375.645 989.049 433.329 1118.12 563.868C1509.54 959.709 1548.08 1081.96 1671.21 1084.06C1843.71 1087.02 1887.22 849.073 2135.42 788.934C2317.72 744.771 2495.44 824.35 2621.87 903.352" stroke="white" stroke-width="1.8932" stroke-miterlimit="10"/>
<path d="M428.944 1468.6C776.019 1185.15 870.708 949.437 887.04 790.888C905.289 613.706 830.03 443.01 887.634 418.913C924.667 403.418 989.459 460.136 1114.13 586.197C1492.99 969.225 1533.93 1092.5 1655.76 1093.24C1828.59 1093.68 1863.77 841.525 2112.58 773.035C2118 771.542 2123.36 770.139 2128.76 768.868C2307.07 727.039 2486.9 806.126 2615.27 883.928" stroke="white" stroke-width="1.8932" stroke-miterlimit="10"/>
<path d="M414.386 1452.63C751.051 1176.17 855.153 944.417 878.047 794.12C903.562 626.592 831.192 465.271 888.995 444.574C926.331 431.197 989.922 486.954 1110.16 608.537C1476.41 978.747 1519.8 1103.46 1640.36 1102.41C1813.51 1100.91 1840.38 833.842 2089.78 757.12C2095.25 755.435 2100.71 753.755 2106.23 752.338C2286.5 706.093 2474.71 785.591 2608.71 864.492" stroke="white" stroke-width="1.8932" stroke-miterlimit="10"/>
<path d="M399.803 1436.67C726.099 1167.13 839.493 939.862 869.036 797.355C901.699 639.777 832.364 487.547 890.333 470.245C927.995 459.001 990.322 513.783 1106.18 630.877C1459.86 988.309 1505.67 1114.18 1624.93 1111.59C1798.42 1107.81 1816.98 826.059 2066.97 741.21C2072.51 739.325 2078.06 737.458 2083.65 735.815C2265.18 682.47 2462.48 765.062 2602.1 845.056" stroke="white" stroke-width="1.8932" stroke-miterlimit="10"/>
<path d="M385.224 1420.71C701.14 1158.14 823.677 935.807 860.022 800.59C899.62 653.275 833.57 509.837 891.681 495.914C929.677 486.804 990.752 540.608 1102.2 653.218C1443.3 997.846 1491.54 1124.88 1609.51 1120.75C1783.37 1114.68 1793.59 818.173 2044.15 725.275C2049.78 723.201 2055.41 721.126 2061.12 719.259C2244.26 660.242 2450.29 744.509 2595.55 825.613" stroke="white" stroke-width="1.8932" stroke-miterlimit="10"/>
<path d="M370.646 1404.75C676.187 1149.15 807.635 932.312 851.029 803.828C897.201 667.103 834.782 532.146 893.041 521.574C931.388 514.62 991.187 567.428 1098.23 675.559C1426.76 1007.38 1477.43 1135.55 1594.11 1129.93C1768.32 1121.52 1770.18 810.194 2021.35 709.377C2027.06 707.085 2032.76 704.782 2038.59 702.741C2223.36 638.098 2438.13 723.981 2588.99 806.194" stroke="white" stroke-width="1.8932" stroke-miterlimit="10"/>
<path d="M356.078 1388.79C651.226 1140.14 791.256 929.396 842.014 807.066C894.232 681.208 836.041 554.472 894.381 547.247C933.093 542.45 991.614 594.275 1094.24 697.901C1410.19 1016.92 1463.31 1146.21 1578.68 1139.1C1753.28 1128.34 1746.75 802.142 1998.53 693.469C2004.34 690.966 2010.1 688.449 2016.02 686.222C2202.41 615.99 2425.92 703.467 2582.39 786.767" stroke="white" stroke-width="1.8932" stroke-miterlimit="10"/>
<path d="M341.499 1372.83C626.263 1131.14 752.182 915.322 833.006 810.299C866.636 688.202 837.296 576.826 895.728 572.908C934.81 570.291 992.038 621.076 1090.27 720.269C1393.64 1026.48 1449.2 1156.86 1563.27 1148.3C1738.24 1135.16 1723.3 794.034 1975.72 677.585C1981.59 674.879 1987.46 672.143 1993.49 669.714C2181.52 593.94 2413.76 682.934 2575.84 767.354" stroke="white" stroke-width="1.8932" stroke-miterlimit="10"/>
<path d="M326.918 1356.87C601.303 1122.14 733.031 909.67 823.996 813.536C860.866 700.651 838.557 599.213 897.074 598.58C936.536 598.152 992.455 647.89 1086.28 742.588C1377.05 1036 1435.08 1167.45 1547.84 1157.45C1723.18 1141.89 1699.81 785.804 1952.9 661.648C1958.85 658.731 1964.79 655.783 1970.93 653.156C2160.61 571.881 2401.53 662.383 2569.25 747.895" stroke="white" stroke-width="1.8932" stroke-miterlimit="10"/>
<path d="M312.338 1340.91C576.339 1113.13 713.878 904.025 814.982 816.769C855.091 713.09 839.825 621.616 898.42 624.241C938.26 626.021 992.885 674.714 1082.3 764.924C1360.52 1045.55 1420.96 1178.03 1532.42 1166.61C1708.14 1148.61 1676.29 777.534 1930.09 645.723C1936.11 642.6 1942.14 639.443 1948.38 636.616C2139.72 549.866 2389.33 641.837 2562.67 728.453" stroke="white" stroke-width="1.8932" stroke-miterlimit="10"/>
<path d="M297.765 1324.95C551.388 1104.13 694.73 898.379 805.976 820.012C849.325 725.544 841.096 644.061 899.761 649.914C939.985 653.925 993.315 701.549 1078.32 787.252C1343.95 1055.06 1406.85 1188.58 1517 1175.77C1693.09 1155.29 1652.74 769.206 1907.27 629.803C1913.37 626.462 1919.49 623.109 1925.82 620.077C2118.85 527.882 2377.13 621.296 2556.09 709.011" stroke="white" stroke-width="1.8932" stroke-miterlimit="10"/>
<path d="M283.188 1308.99C526.417 1095.13 675.597 892.725 796.983 823.267C843.572 738.009 842.373 666.536 901.112 675.606C941.712 681.867 993.747 728.392 1074.34 809.636C1327.4 1064.63 1392.73 1199.16 1501.6 1184.98C1678.06 1161.99 1629.18 760.889 1884.47 613.929C1890.65 610.375 1896.83 606.822 1903.29 603.606C2098.02 505.987 2364.95 600.813 2549.53 689.632" stroke="white" stroke-width="1.8932" stroke-miterlimit="10"/>
<path d="M268.607 1293.03C501.457 1086.13 656.423 887.082 787.961 826.48C837.791 750.434 843.611 689.004 902.457 701.246C943.424 709.77 994.168 755.196 1070.36 831.955C1310.87 1074.14 1378.62 1209.66 1486.16 1194.13C1663 1168.59 1605.55 752.448 1861.65 597.995C1867.9 594.226 1874.19 590.468 1880.75 587.029C2077.2 484.035 2352.75 580.215 2542.96 670.16" stroke="white" stroke-width="1.8932" stroke-miterlimit="10"/>
<path d="M254.049 1277.06C476.497 1077.12 637.274 881.44 778.96 829.726C832.024 762.893 844.85 711.508 903.808 726.914C945.139 737.716 994.6 782.016 1066.38 854.292C1294.29 1083.69 1364.5 1220.18 1470.75 1203.31C1647.95 1175.18 1581.89 743.979 1838.84 582.084C1845.16 578.097 1851.54 574.136 1858.19 570.502C2056.36 462.119 2340.54 559.704 2536.4 650.721" stroke="white" stroke-width="1.8932" stroke-miterlimit="10"/>
<path d="M239.459 1261.11C451.535 1068.12 618.127 875.791 769.951 832.954C826.256 775.332 846.077 734.021 905.16 752.594C946.838 765.684 995.032 808.848 1062.38 876.653C1277.72 1093.24 1350.35 1230.66 1455.3 1212.49C1632.86 1181.75 1558.19 735.555 1816 566.184C1822.4 561.986 1828.87 557.828 1835.61 553.988C2035.54 440.245 2328.33 539.189 2529.77 631.312" stroke="white" stroke-width="1.8932" stroke-miterlimit="10"/>
<path d="M224.881 1245.15C426.572 1059.12 598.975 870.142 760.938 836.189C820.489 787.777 847.282 756.551 906.504 778.245C948.521 793.637 995.454 835.663 1058.43 898.976C1261.18 1102.76 1336.24 1241.11 1439.91 1221.65C1617.82 1188.25 1534.49 727.018 1793.22 550.281C1799.69 545.866 1806.25 541.511 1813.13 537.463C2014.77 418.355 2316.15 518.632 2523.21 611.837" stroke="white" stroke-width="1.8932" stroke-miterlimit="10"/>
<path d="M210.3 1229.19C401.615 1050.12 579.825 864.518 751.929 839.425C814.68 800.217 848.469 779.099 907.85 803.915C950.187 821.614 995.881 862.485 1054.44 921.299C1244.61 1112.27 1322.1 1251.53 1424.48 1230.79C1602.72 1194.7 1510.72 718.47 1770.39 534.321C1776.93 529.683 1783.59 525.136 1790.53 520.89C1994 396.499 2303.97 498.097 2516.64 592.427" stroke="white" stroke-width="1.8932" stroke-miterlimit="10"/>
<path d="M195.718 1213.21C376.648 1041.1 560.664 858.833 742.914 842.646C808.938 812.653 849.636 801.625 909.182 829.561C951.833 849.545 996.3 889.287 1050.45 943.641C1228.05 1121.8 1307.95 1261.95 1409.06 1239.97C1587.64 1201.17 1486.94 709.945 1747.59 518.444C1754.2 513.586 1760.95 508.846 1767.99 504.395C1973.26 374.661 2291.76 477.577 2510.07 573.023" stroke="white" stroke-width="1.8932" stroke-miterlimit="10"/>
<path d="M181.142 1197.25C351.691 1032.14 557.663 924.208 733.913 845.901C799.866 816.597 850.802 824.2 910.537 855.25C953.491 877.551 996.737 916.133 1046.48 966.003C1211.5 1131.37 1293.8 1272.38 1393.65 1249.17C1572.52 1207.57 1463.11 701.373 1724.77 502.515C1731.44 497.448 1738.3 492.505 1745.43 487.851C1952.51 352.814 2279.54 457.037 2503.49 553.559" stroke="white" stroke-width="1.8932" stroke-miterlimit="10"/>
<path d="M166.568 1181.3C326.741 1023.1 522.335 864.433 724.906 849.124C797.982 843.605 851.942 846.743 911.885 880.908C955.131 905.529 997.16 942.944 1042.5 988.335C1194.95 1140.9 1279.64 1282.76 1378.23 1258.32C1557.39 1213.93 1439.26 692.783 1701.95 486.594C1708.7 481.302 1715.66 476.184 1722.89 471.313C1932.07 331.363 2267.36 436.495 2496.93 534.121" stroke="white" stroke-width="1.8932" stroke-miterlimit="10"/>
<path d="M151.991 1165.34C301.767 1014.1 502.595 850.453 715.9 852.362C791.563 853.044 853.071 869.303 913.233 906.575C956.758 933.52 997.591 969.774 1038.52 1010.68C1178.39 1150.44 1265.58 1293.52 1362.81 1267.5C1542.05 1219.54 1415.06 683.854 1679.14 470.686C1685.95 465.164 1693.01 459.865 1700.34 454.786C1911.23 309.353 2255.16 415.955 2490.33 514.684" stroke="white" stroke-width="1.8932" stroke-miterlimit="10"/>
<path d="M137.413 1149.39C276.806 1005.11 484.064 836.278 706.889 855.609C1042.81 884.769 1185.7 1321.79 1347.4 1276.67C1531.73 1225.24 1384.2 646.652 1677.79 438.259C1890.39 287.352 2242.99 395.416 2483.76 495.261" stroke="white" stroke-width="1.8932" stroke-miterlimit="10"/>
</g>
</svg>
