<svg width="1440" height="636" viewBox="0 0 1440 636" fill="none" xmlns="http://www.w3.org/2000/svg">
<g clip-path="url(#clip0_738_467)">
<rect width="1440" height="636" fill="#0A379E"/>
<g style="mix-blend-mode:exclusion" opacity="0.04">
<path d="M-535.502 832.843C-116.796 641.024 25.571 430.619 76.8704 271.204C134.118 93.2887 103.578 -100.833 166.015 -113.117C205.995 -120.986 255.48 -48.634 347.825 110.027C627.859 591.148 634.616 719.156 753.312 751.963C919.589 797.956 1021.21 578.44 1276.56 582.256C1464.11 585.067 1616.29 706.547 1718.96 814.646" stroke="white" stroke-width="1.8932" stroke-miterlimit="10"/>
<path d="M-545.639 813.745C-138.727 626.066 11.8814 421.504 67.3296 272.072C129.292 105.077 99.0935 -79.0127 160.893 -87.9442C200.624 -93.6905 249.18 -22.5757 338.38 130.648C609.463 596.226 618.282 725.821 736.059 756.991C903.291 800.622 1000.39 565.269 1258.42 561.152C1264.05 561.063 1269.59 561.043 1275.13 561.162C1458.23 565.235 1612.58 686.765 1717.43 794.19" stroke="white" stroke-width="1.8932" stroke-miterlimit="10"/>
<path d="M-555.744 794.647C-160.657 611.125 -1.9255 412.754 57.814 272.951C124.398 117.121 94.6536 -57.169 155.796 -62.7596C195.29 -66.3778 242.923 3.50572 328.953 151.287C591.029 601.299 601.862 732.898 718.851 762.019C886.889 803.85 979.667 551.982 1240.33 540.042C1246.04 539.779 1251.74 539.515 1257.45 539.524C1443.56 539.812 1605.92 663.836 1715.94 773.729" stroke="white" stroke-width="1.8932" stroke-miterlimit="10"/>
<path d="M-565.875 775.55C-182.557 596.133 -15.9498 404.428 48.2796 273.831C119.299 129.421 90.2197 -35.3075 150.673 -37.5686C189.951 -39.0414 236.604 29.5819 319.508 171.92C572.608 606.419 585.497 739.743 701.623 767.048C870.547 806.765 958.955 538.597 1222.21 518.933C1228.05 518.495 1233.89 518.074 1239.71 517.88C1428.81 511.608 1599.21 640.901 1714.39 753.256" stroke="white" stroke-width="1.8932" stroke-miterlimit="10"/>
<path d="M-575.999 756.451C-204.475 581.192 -30.2477 396.548 38.745 274.71C113.913 141.971 85.8171 -13.4238 145.564 -12.3786C184.63 -11.7002 230.316 55.663 310.075 192.558C554.193 611.514 569.145 746.571 684.402 772.07C854.262 809.651 938.273 525.112 1204.1 497.8C1210.07 497.199 1216.04 496.598 1222.04 496.217C1414.12 484.858 1592.54 617.953 1712.91 732.794" stroke="white" stroke-width="1.8932" stroke-miterlimit="10"/>
<path d="M-586.125 737.356C-226.389 566.248 -44.9079 389.155 29.2277 275.599C108.113 154.757 81.413 8.48049 140.465 12.8089C179.333 15.6615 224.033 81.7415 300.646 213.199C535.795 616.613 552.816 753.378 667.192 777.1C837.976 812.516 917.609 511.538 1186.01 476.71C1192.1 475.918 1198.2 475.113 1204.35 474.593C1399.41 458.192 1585.9 595.037 1711.41 712.352" stroke="white" stroke-width="1.8932" stroke-miterlimit="10"/>
<path d="M-596.243 718.259C-248.306 551.285 -60.0395 382.236 19.6875 276.479C101.71 167.671 77.0486 30.4118 135.343 38.0003C174.025 43.033 217.733 107.841 291.195 233.833C517.368 621.704 536.477 760.166 649.958 782.124C821.704 815.357 896.927 497.881 1167.89 455.602C1174.13 454.629 1180.34 453.633 1186.63 452.956C1384.65 431.547 1579.2 572.12 1709.88 691.892" stroke="white" stroke-width="1.8932" stroke-miterlimit="10"/>
<path d="M-606.368 699.162C-270.225 536.328 -94.3532 358.843 10.1587 277.359C73.243 167.546 72.677 52.3717 130.233 63.1856C168.729 70.4214 211.444 133.9 281.762 254.501C498.953 626.83 520.149 766.959 632.737 787.181C805.437 818.197 876.25 484.171 1149.77 434.521C1156.13 433.368 1162.5 432.187 1168.94 431.341C1369.94 404.978 1572.56 549.202 1708.39 671.46" stroke="white" stroke-width="1.8932" stroke-miterlimit="10"/>
<path d="M-616.498 680.065C-292.143 521.371 -111.484 348.581 0.624771 278.24C64.5438 178.155 68.3005 74.3612 125.118 88.3772C163.434 97.8278 205.144 159.965 272.317 275.111C480.501 631.898 503.828 773.677 615.516 792.181C789.177 820.95 855.562 470.328 1131.66 413.384C1138.14 412.045 1144.64 410.677 1151.24 409.668C1355.21 378.391 1565.86 526.245 1706.88 650.97" stroke="white" stroke-width="1.8932" stroke-miterlimit="10"/>
<path d="M-626.621 660.967C-314.06 506.413 -128.615 338.33 -8.90873 279.119C55.8451 188.758 63.9306 96.3722 120.009 113.561C158.139 125.244 198.857 186.046 262.878 295.744C462.118 637.011 487.521 780.394 598.296 797.197C772.936 823.697 834.861 456.443 1113.55 392.262C1120.16 390.743 1126.79 389.195 1133.54 388.018C1340.49 351.855 1559.18 503.303 1705.37 630.502" stroke="white" stroke-width="1.8932" stroke-miterlimit="10"/>
<path d="M-636.744 641.87C-335.97 491.456 -145.745 328.074 -18.4413 280.005C47.1473 199.373 59.5493 118.42 114.889 138.753C152.833 152.691 192.565 212.135 253.441 316.366C443.699 642.073 471.214 787.083 581.07 802.215C756.69 826.404 814.143 442.491 1095.44 371.142C1102.18 369.431 1108.94 367.715 1115.83 366.363C1325.78 325.35 1552.5 480.363 1703.86 610.03" stroke="white" stroke-width="1.8932" stroke-miterlimit="10"/>
<path d="M-646.869 622.767C-357.901 476.504 -162.859 317.817 -27.9638 280.908C38.4595 210.005 55.1656 140.501 109.772 163.967C147.518 180.178 186.27 238.234 243.995 337.045C425.277 647.21 454.904 793.801 563.854 807.278C740.467 829.133 793.409 428.549 1077.33 350.073C1084.2 348.177 1091.07 346.28 1098.13 344.783C1311.08 298.942 1545.83 457.485 1702.35 589.627" stroke="white" stroke-width="1.8932" stroke-miterlimit="10"/>
<path d="M-656.996 603.669C-379.816 461.546 -180.012 307.561 -37.501 281.765C29.7571 220.59 50.7486 162.565 104.666 189.129C142.202 207.624 179.979 264.293 234.56 357.661C406.891 652.283 438.611 800.437 546.624 812.283C724.228 831.758 772.635 414.468 1059.22 328.94C1066.21 326.852 1073.24 324.787 1080.45 323.098C1296.41 272.482 1539.17 434.492 1700.85 569.131" stroke="white" stroke-width="1.8932" stroke-miterlimit="10"/>
<path d="M-667.103 584.57C-401.736 446.587 -197.145 297.309 -47.0306 282.655C21.056 231.209 46.3204 184.663 99.555 214.318C136.874 235.11 173.69 290.367 225.125 378.292C388.456 657.378 422.313 807.09 529.402 817.31C708.01 834.376 751.844 400.352 1041.1 307.83C1048.22 305.55 1055.39 303.31 1062.73 301.452C1281.7 246.05 1532.47 411.579 1699.36 548.668" stroke="white" stroke-width="1.8932" stroke-miterlimit="10"/>
<path d="M-677.24 565.475C-423.654 431.631 -214.271 287.054 -56.5587 283.531C12.3626 241.814 41.8812 206.769 94.4455 239.522C131.529 262.616 167.402 316.457 215.661 398.945C370.016 662.488 405.992 813.705 512.156 822.346C691.761 836.968 731.004 386.273 1022.97 286.728C1030.21 284.262 1037.52 281.854 1045.01 279.822C1267.02 219.667 1525.77 388.663 1697.8 528.22" stroke="white" stroke-width="1.8932" stroke-miterlimit="10"/>
<path d="M-687.365 546.377C-445.573 416.674 -231.404 276.797 -66.0945 284.411C3.66789 252.423 37.4157 228.886 89.3344 264.696C126.169 290.103 161.106 342.527 206.252 419.572C351.624 667.567 389.719 820.289 494.964 827.363C675.568 839.501 710.187 372.082 1004.88 265.636C1012.25 262.978 1019.69 260.402 1027.36 258.201C1252.38 193.283 1519.12 365.716 1696.31 507.724" stroke="white" stroke-width="1.8932" stroke-miterlimit="10"/>
<path d="M-697.494 527.279C-467.489 401.721 -248.539 266.563 -75.6266 285.29C-5.06709 263.013 32.929 251.013 84.2209 289.886C120.789 317.606 154.815 368.602 196.809 440.186C333.206 672.639 373.418 826.843 477.739 832.361C659.34 841.974 689.312 357.862 986.773 244.473C994.264 241.618 1001.84 238.879 1009.63 236.503C1237.73 166.926 1512.46 342.785 1694.8 487.285" stroke="white" stroke-width="1.8932" stroke-miterlimit="10"/>
<path d="M-707.617 508.161C-489.407 386.743 -265.671 256.269 -85.1605 286.155C-13.7349 273.619 28.4278 273.115 79.0993 315.05C115.401 345.062 148.521 394.658 187.364 460.822C314.785 677.727 357.115 833.401 460.512 837.392C643.117 844.463 668.416 343.663 968.665 223.402C976.275 220.349 983.997 217.447 991.927 214.897C1223.11 140.596 1505.77 319.865 1693.29 466.856" stroke="white" stroke-width="1.8932" stroke-miterlimit="10"/>
<path d="M-717.739 489.068C-511.328 371.831 -284.916 318.819 -94.6858 287.057C-23.5017 275.171 23.9165 295.266 73.9925 340.263C110.008 372.594 142.236 420.762 177.934 481.483C296.373 682.857 340.815 839.961 443.294 842.443C626.883 846.885 647.491 329.408 950.554 202.274C958.281 199.035 966.16 195.964 974.226 193.241C1208.48 114.257 1499.07 296.923 1691.79 446.365" stroke="white" stroke-width="1.8932" stroke-miterlimit="10"/>
<path d="M-727.867 469.976C-533.231 356.837 -304.184 252.108 -104.218 287.925C-32.0826 300.849 19.38 317.376 68.8793 365.442C104.597 400.092 135.938 446.826 168.491 502.11C277.961 687.941 324.502 846.464 426.069 847.453C610.637 849.254 626.534 315.124 932.436 181.152C940.294 177.716 948.309 174.5 956.525 171.59C1194.05 88.3753 1492.41 273.987 1690.29 425.902" stroke="white" stroke-width="1.8932" stroke-miterlimit="10"/>
<path d="M-737.992 450.886C-555.163 341.887 -319.802 233.641 -113.746 288.812C-40.6563 308.387 14.8339 339.506 63.769 390.634C99.1761 427.604 129.649 472.915 159.051 522.75C259.545 693.044 308.193 853.374 408.847 852.489C594.384 850.855 605.335 300.432 914.327 160.05C922.295 156.405 930.46 153.039 938.821 149.953C1179.38 61.8589 1485.74 251.053 1688.76 405.437" stroke="white" stroke-width="1.8932" stroke-miterlimit="10"/>
<path d="M-748.117 431.792C-577.081 326.939 -334.2 215.281 -123.282 289.702C194.679 401.91 223.786 860.778 391.632 857.515C582.968 853.797 584.758 256.695 921.123 128.313C1164.7 35.3451 1479.09 228.121 1687.25 384.986" stroke="white" stroke-width="1.8932" stroke-miterlimit="10"/>
</g>
</g>
<defs>
<clipPath id="clip0_738_467">
<rect width="1440" height="636" fill="white"/>
</clipPath>
</defs>
</svg>
