<svg width="1398" height="574" viewBox="0 0 1398 574" fill="none" xmlns="http://www.w3.org/2000/svg">
<g clip-path="url(#clip0_703_509)">
<rect width="1398" height="574" rx="30" fill="#00163B"/>
<g opacity="0.23" style="mix-blend-mode:soft-light">
<path d="M699 363L831.502 876H566.498L699 363Z" fill="#D9D9D9"/>
</g>
<g opacity="0.23" style="mix-blend-mode:soft-light">
<path d="M300.69 358.444L178.313 873.953L-56.0257 750.209L300.69 358.444Z" fill="#D9D9D9"/>
</g>
<g opacity="0.23" style="mix-blend-mode:soft-light">
<path d="M1057.29 358.444L1179.67 873.953L1414.01 750.209L1057.29 358.444Z" fill="#D9D9D9"/>
</g>
<g opacity="0.23" style="mix-blend-mode:soft-light">
<path d="M1214.22 294.361L1729.89 416.038L1724.32 151.093L1214.22 294.361Z" fill="#D9D9D9"/>
</g>
<g opacity="0.23" style="mix-blend-mode:soft-light">
<path d="M184.067 272.361L-331.607 394.038L-326.031 129.093L184.067 272.361Z" fill="#D9D9D9"/>
</g>
<g opacity="0.23" style="mix-blend-mode:soft-light">
<path d="M1114.96 146.148L1597.63 -72.3815L1431.43 -278.79L1114.96 146.148Z" fill="#D9D9D9"/>
</g>
<g opacity="0.23" style="mix-blend-mode:soft-light">
<path d="M305.716 146.148L-176.954 -72.3815L-10.7536 -278.79L305.716 146.148Z" fill="#D9D9D9"/>
</g>
<g opacity="0.23" style="mix-blend-mode:soft-light">
<path d="M728 198L595.498 -315H860.502L728 198Z" fill="#D9D9D9"/>
</g>
<g style="mix-blend-mode:exclusion" opacity="0.04">
<path d="M-487.965 471.647C-47.1036 338.418 122.497 149.278 194.954 -1.70234C275.814 -170.204 271.897 -366.674 335.424 -370.372C376.102 -372.743 415.312 -294.346 485.273 -124.621C697.432 390.048 686.756 517.789 799.903 566.4C958.401 634.53 1088.87 430.834 1341.34 469.264C1526.77 497.497 1661.07 638.505 1748.11 759.535" stroke="white" stroke-width="1.8932" stroke-miterlimit="10"/>
<path d="M-495.418 451.351C-66.8032 320.624 110.17 138.39 185.382 -2.1356C269.431 -159.178 264.492 -345.663 326.932 -346.126C367.075 -346.428 405.532 -269.382 473.115 -105.471C678.515 392.585 669.667 522.178 782.126 569.042C941.89 634.961 1070.03 414.961 1326.23 445.895C1331.82 446.57 1337.31 447.302 1342.78 448.172C1523.64 477.053 1660.07 618.404 1749.38 739.063" stroke="white" stroke-width="1.8932" stroke-miterlimit="10"/>
<path d="M-502.84 431.059C-86.5045 302.846 97.677 127.848 175.834 -2.55478C262.948 -147.908 257.129 -324.623 318.464 -321.865C358.084 -320.091 395.793 -244.39 460.975 -86.302C659.563 395.11 652.438 526.962 764.393 571.689C925.201 635.934 1051.3 398.985 1311.17 422.526C1316.87 423.04 1322.55 423.553 1328.2 424.335C1512.55 449.875 1656.58 594.783 1750.67 718.588" stroke="white" stroke-width="1.8932" stroke-miterlimit="10"/>
<path d="M-510.283 410.763C-106.164 285.02 84.9149 117.696 166.271 -2.97733C256.229 -136.415 249.772 -303.566 309.973 -297.603C349.087 -293.732 385.997 -219.413 448.819 -67.142C640.62 397.682 635.299 531.523 746.646 574.332C908.618 636.604 1032.6 382.913 1296.09 399.153C1301.93 399.512 1307.78 399.887 1313.57 400.484C1501.77 419.93 1653.04 571.148 1751.92 698.094" stroke="white" stroke-width="1.8932" stroke-miterlimit="10"/>
<path d="M-517.724 390.47C-125.855 267.245 71.8163 107.951 156.704 -3.39838C249.188 -124.71 242.438 -282.48 301.49 -273.337C340.103 -267.364 376.226 -194.425 436.671 -47.9732C621.682 400.234 618.169 536.07 728.9 576.973C892.09 637.255 1013.93 366.748 1281.01 375.76C1287.01 375.974 1293.01 376.19 1299 376.626C1490.84 391.436 1649.55 547.511 1753.23 677.623" stroke="white" stroke-width="1.8932" stroke-miterlimit="10"/>
<path d="M-525.165 370.174C-145.537 249.463 58.2954 98.6333 147.154 -3.81289C241.708 -112.832 235.103 -261.379 293.022 -249.078C331.143 -240.977 366.463 -169.443 424.53 -28.8051C602.763 402.786 601.068 540.595 711.167 579.618C875.566 637.881 995.303 350.492 1265.94 352.407C1272.09 352.449 1278.24 352.48 1284.41 352.799C1479.89 363.017 1646.08 523.902 1754.52 657.164" stroke="white" stroke-width="1.8932" stroke-miterlimit="10"/>
<path d="M-532.599 349.88C-165.223 231.663 44.2412 89.7242 137.581 -4.23616C233.61 -100.908 227.802 -240.244 284.528 -224.815C322.169 -214.58 356.678 -144.441 412.365 -9.6459C583.814 405.328 583.958 545.102 693.41 582.256C859.057 638.486 976.664 334.154 1250.85 329.033C1257.18 328.917 1263.46 328.773 1269.78 328.955C1468.88 334.616 1642.55 500.287 1755.77 636.684" stroke="white" stroke-width="1.8932" stroke-miterlimit="10"/>
<path d="M-540.039 329.585C-184.91 213.87 13.4191 61.8911 128.021 -4.65732C205.423 -104.895 220.491 -219.08 276.047 -200.557C313.205 -188.164 346.911 -119.476 400.214 9.55073C564.873 407.907 566.859 549.616 675.661 584.929C842.555 639.092 958.039 317.765 1235.77 305.69C1242.22 305.411 1248.69 305.103 1255.19 305.139C1457.91 306.295 1639.09 476.68 1757.07 616.238" stroke="white" stroke-width="1.8932" stroke-miterlimit="10"/>
<path d="M-547.481 309.292C-204.592 196.078 -2.15769 49.401 118.46 -5.07729C195.368 -95.5624 213.174 -197.887 267.564 -176.291C304.243 -161.728 337.136 -94.5056 388.063 28.6903C545.908 410.426 549.781 554.059 657.925 587.548C826.076 639.615 939.424 301.244 1220.69 282.291C1227.3 281.845 1233.92 281.371 1240.59 281.267C1446.93 277.957 1635.56 453.026 1758.35 595.734" stroke="white" stroke-width="1.8932" stroke-miterlimit="10"/>
<path d="M-554.922 288.997C-224.28 178.284 -17.7425 36.9199 108.891 -5.49981C185.308 -86.2386 205.855 -176.672 259.082 -152.033C295.274 -135.284 327.365 -69.5188 375.909 47.8511C526.998 412.998 532.709 558.501 640.18 590.181C809.609 640.133 920.795 284.679 1205.62 258.908C1212.37 258.3 1219.15 257.666 1226 257.415C1435.94 249.67 1632.06 429.391 1759.63 575.251" stroke="white" stroke-width="1.8932" stroke-miterlimit="10"/>
<path d="M-562.357 268.702C-243.955 160.492 -33.3195 24.4339 99.3295 -5.91573C175.253 -76.9024 198.525 -155.424 250.593 -127.77C286.296 -108.811 317.594 -44.5262 363.763 67.0013C508.065 415.513 515.648 562.915 622.435 592.814C793.149 640.61 902.164 268.044 1190.54 235.525C1197.45 234.744 1204.38 233.961 1211.39 233.557C1424.97 221.413 1628.56 405.756 1760.91 554.762" stroke="white" stroke-width="1.8932" stroke-miterlimit="10"/>
<path d="M-569.799 248.403C-263.658 142.703 -48.8863 11.9507 89.7694 -6.31237C165.199 -67.5468 191.182 -134.141 242.1 -103.482C277.297 -82.2991 307.812 -19.5217 351.595 86.2085C489.113 418.103 498.575 567.359 604.689 595.495C776.702 641.113 883.511 251.418 1175.45 212.194C1182.52 211.247 1189.58 210.3 1196.78 209.776C1413.98 193.255 1625.04 382.186 1762.18 534.344" stroke="white" stroke-width="1.8932" stroke-miterlimit="10"/>
<path d="M-577.239 228.107C-283.338 124.91 -64.4869 -0.538833 80.2064 -6.75804C155.143 -58.2404 183.814 -112.88 233.629 -79.2463C268.307 -55.8285 298.046 5.44199 339.452 105.353C470.211 420.634 481.534 571.722 586.941 598.115C760.259 641.51 864.842 234.649 1160.38 188.799C1167.59 187.679 1174.83 186.586 1182.21 185.892C1403.04 165.048 1621.57 358.501 1763.49 513.834" stroke="white" stroke-width="1.8932" stroke-miterlimit="10"/>
<path d="M-584.661 207.817C-303.025 107.118 -80.0703 -13.0178 70.6443 -7.16604C145.082 -48.8971 176.429 -91.5847 225.147 -54.9801C259.299 -29.3169 288.277 30.4253 327.305 124.517C451.255 423.184 464.484 576.105 569.196 600.762C743.836 641.907 846.159 217.844 1145.3 165.429C1152.66 164.136 1160.06 162.89 1167.59 162.046C1392.06 136.869 1618.04 334.894 1764.79 493.362" stroke="white" stroke-width="1.8932" stroke-miterlimit="10"/>
<path d="M-592.113 187.519C-322.711 89.3231 -95.646 -25.5051 61.0853 -7.59472C135.03 -39.5736 169.031 -70.2885 216.664 -30.7059C250.271 -2.79405 278.507 55.4166 315.126 143.69C432.292 425.741 447.416 580.441 551.426 603.408C727.386 642.267 827.422 201.064 1130.19 142.058C1137.71 140.598 1145.27 139.203 1152.96 138.206C1381.08 108.734 1614.52 311.278 1766.01 472.887" stroke="white" stroke-width="1.8932" stroke-miterlimit="10"/>
<path d="M-599.553 167.224C-342.398 71.5296 -111.229 -37.9916 51.5184 -8.01684C124.976 -30.2428 161.606 -48.9824 208.185 -6.45877C241.232 23.7116 268.732 80.3916 303.005 162.85C413.382 428.277 430.4 584.756 533.713 606.045C710.998 642.578 808.724 184.18 1115.14 118.707C1122.8 117.074 1130.52 115.531 1138.42 114.391C1370.17 80.6073 1611.04 287.641 1767.32 452.379" stroke="white" stroke-width="1.8932" stroke-miterlimit="10"/>
<path d="M-606.996 146.93C-362.081 53.743 -126.817 -50.4546 41.9556 -8.43767C114.885 -20.9336 154.158 -27.6668 199.701 17.8061C232.17 50.2325 258.96 105.374 290.852 181.994C394.445 430.805 413.361 589.039 515.969 608.662C694.586 642.829 789.971 167.261 1100.07 95.2848C1107.88 93.4725 1115.76 91.7867 1123.79 90.4902C1359.23 52.5085 1607.55 264.02 1768.6 431.926" stroke="white" stroke-width="1.8932" stroke-miterlimit="10"/>
<path d="M-614.435 126.613C-381.766 35.9279 -142.395 -62.9798 32.3898 -8.87552C104.856 -11.6037 146.697 -6.38139 191.209 42.0415C223.103 76.701 249.187 130.333 278.692 201.156C375.502 433.345 396.317 593.323 498.216 611.308C678.172 643.092 771.193 150.356 1084.98 71.9494C1092.94 69.9575 1100.98 68.1298 1109.18 66.6799C1348.31 24.4363 1604.03 240.402 1769.87 411.479" stroke="white" stroke-width="1.8932" stroke-miterlimit="10"/>
<path d="M-621.871 106.325C-401.461 18.1803 -169.95 -3.61829 22.8312 -9.273C94.9698 -11.39 139.223 14.9534 182.73 66.3297C214.025 103.248 239.419 155.344 266.547 220.348C356.565 435.93 379.278 597.612 480.473 613.976C661.761 643.289 752.396 133.395 1069.91 48.5607C1078 46.4007 1086.23 44.4271 1094.59 42.823C1337.4 -3.64236 1600.51 216.765 1771.16 390.974" stroke="white" stroke-width="1.8932" stroke-miterlimit="10"/>
<path d="M-629.312 86.0362C-421.124 0.354987 -179.984 -72.325 13.2726 -9.70555C82.9867 12.8872 131.731 36.2449 174.25 90.5828C204.935 129.759 229.645 180.313 254.395 239.503C337.636 438.47 362.237 601.842 462.73 616.604C645.346 643.433 733.575 116.401 1054.83 25.1773C1063.08 22.8392 1071.46 20.7401 1079.99 18.972C1326.61 -31.2421 1597.03 193.138 1772.46 370.5" stroke="white" stroke-width="1.8932" stroke-miterlimit="10"/>
<path d="M-636.754 65.7453C-440.825 -17.4363 -192.953 -92.7445 3.71026 -10.1229C73.4682 19.1886 124.222 57.55 165.767 114.845C195.83 156.278 219.873 205.304 242.241 258.669C318.697 441.024 345.14 606.472 444.983 619.253C629.025 642.811 714.564 98.9647 1039.75 1.80981C1048.14 -0.720464 1056.68 -2.94716 1065.38 -4.87028C1315.67 -59.5073 1593.52 169.508 1773.72 350.013" stroke="white" stroke-width="1.8932" stroke-miterlimit="10"/>
<path d="M-644.196 45.457C-460.515 -35.2177 -204.728 -112.886 -5.85927 -10.5328C293.935 143.783 260.506 602.357 427.243 621.899C617.314 644.179 700.11 52.8429 1050.78 -28.7092C1304.73 -87.765 1590.04 145.888 1775 329.549" stroke="white" stroke-width="1.8932" stroke-miterlimit="10"/>
</g>
</g>
<defs>
<clipPath id="clip0_703_509">
<rect width="1398" height="574" rx="30" fill="white"/>
</clipPath>
</defs>
</svg>
