<svg width="1440" height="741" viewBox="0 0 1440 741" fill="none" xmlns="http://www.w3.org/2000/svg">
<g clip-path="url(#clip0_819_449)">
<g style="mix-blend-mode:exclusion" opacity="0.04">
<path d="M-217.687 1033.19C139.773 742.792 225.022 503.478 234.841 336.3C245.795 149.723 167.697 -30.6013 225.081 -58.1036C261.824 -75.7167 327.826 -18.0327 456.902 112.506C848.317 508.347 886.86 630.602 1009.99 632.695C1182.48 635.661 1226 397.711 1474.2 337.572C1656.49 293.409 1834.22 372.988 1960.65 451.99" stroke="white" stroke-width="1.8932" stroke-miterlimit="10"/>
<path d="M-232.279 1017.23C114.797 733.792 209.486 498.075 225.818 339.526C244.066 162.344 168.807 -8.35175 226.411 -32.4485C263.444 -47.9444 328.237 8.77412 452.908 134.835C831.772 517.864 872.707 641.139 994.537 641.877C1167.37 642.317 1202.55 390.163 1451.36 321.673C1456.78 320.18 1462.14 318.777 1467.54 317.506C1645.84 275.677 1825.67 354.764 1954.05 432.567" stroke="white" stroke-width="1.8932" stroke-miterlimit="10"/>
<path d="M-246.837 1001.27C89.828 724.809 193.93 493.055 216.824 342.758C242.339 175.23 169.969 13.9093 227.772 -6.78834C265.109 -20.1648 328.699 35.5925 448.94 157.175C815.192 527.385 858.578 652.097 979.133 651.048C1152.29 649.544 1179.16 382.48 1428.56 305.758C1434.03 304.073 1439.48 302.393 1445.01 300.976C1625.28 254.731 1813.49 334.229 1947.49 413.13" stroke="white" stroke-width="1.8932" stroke-miterlimit="10"/>
<path d="M-261.42 985.311C64.876 715.767 178.27 488.5 207.813 345.993C240.477 188.415 171.141 36.1852 229.11 18.8834C266.773 7.63857 329.099 62.4206 444.953 179.515C798.636 536.947 844.445 662.816 963.709 660.224C1137.2 656.452 1155.76 374.698 1405.74 289.848C1411.29 287.963 1416.84 286.096 1422.42 284.453C1603.95 231.108 1801.26 313.7 1940.87 393.694" stroke="white" stroke-width="1.8932" stroke-miterlimit="10"/>
<path d="M-275.999 969.351C39.9171 706.78 162.455 484.445 198.799 349.228C238.397 201.913 172.348 58.4752 230.458 44.5516C268.454 35.4424 329.529 89.246 440.977 201.856C782.078 546.484 830.317 673.515 948.289 669.392C1122.15 663.317 1132.36 366.811 1382.93 273.913C1388.55 271.839 1394.19 269.764 1399.9 267.897C1583.04 208.88 1789.07 293.147 1934.33 374.251" stroke="white" stroke-width="1.8932" stroke-miterlimit="10"/>
<path d="M-290.576 953.392C14.964 697.788 146.412 480.95 189.806 352.466C235.979 215.741 173.559 80.7836 231.818 70.2125C270.165 63.2582 329.965 116.066 437.008 224.197C765.539 556.019 816.208 684.186 932.883 678.564C1107.1 670.162 1108.96 358.832 1360.13 258.015C1365.84 255.723 1371.54 253.42 1377.37 251.379C1562.13 186.736 1776.91 272.619 1927.77 354.832" stroke="white" stroke-width="1.8932" stroke-miterlimit="10"/>
<path d="M-305.145 937.431C-9.99643 688.78 130.033 478.034 180.791 355.704C233.009 229.846 174.818 103.11 233.159 95.8852C271.87 91.0882 330.391 142.913 433.017 246.539C748.972 565.556 802.087 694.844 917.454 687.736C1092.05 676.981 1085.53 350.78 1337.31 242.107C1343.12 239.604 1348.88 237.087 1354.8 234.86C1541.19 164.628 1764.69 252.105 1921.17 335.405" stroke="white" stroke-width="1.8932" stroke-miterlimit="10"/>
<path d="M-319.724 921.469C-34.9595 679.775 90.9598 463.96 171.784 358.937C205.413 236.84 176.074 125.464 234.505 121.546C273.588 118.929 330.816 169.714 429.049 268.907C732.421 575.12 787.974 705.501 902.042 696.937C1077.01 683.795 1062.08 342.672 1314.5 226.223C1320.37 223.517 1326.24 220.781 1332.26 218.352C1520.29 142.578 1752.54 231.572 1914.62 315.992" stroke="white" stroke-width="1.8932" stroke-miterlimit="10"/>
<path d="M-334.305 905.513C-59.9192 670.773 71.8083 458.308 162.774 362.174C199.644 249.289 177.334 147.851 235.851 147.218C275.313 146.79 331.233 196.528 425.057 291.226C715.823 584.642 773.852 716.088 886.62 706.084C1061.96 690.527 1038.59 334.442 1291.68 210.286C1297.62 207.369 1303.57 204.421 1309.71 201.794C1499.39 120.519 1740.31 211.021 1908.03 296.533" stroke="white" stroke-width="1.8932" stroke-miterlimit="10"/>
<path d="M-348.884 889.551C-84.8832 661.768 52.6555 452.663 153.759 365.408C193.868 261.728 178.602 170.254 237.197 172.879C277.037 174.659 331.662 223.352 421.073 313.562C699.299 594.187 759.738 726.667 871.197 715.245C1046.92 697.245 1015.07 326.172 1268.86 194.361C1274.88 191.238 1280.92 188.081 1287.16 185.254C1478.5 98.5042 1728.11 190.475 1901.45 277.091" stroke="white" stroke-width="1.8932" stroke-miterlimit="10"/>
<path d="M-363.458 873.592C-109.835 652.765 33.5074 447.017 144.753 368.65C188.102 274.182 179.873 192.699 238.539 198.552C278.763 202.563 332.093 250.187 417.092 335.89C682.731 603.695 745.623 737.222 855.774 724.411C1031.87 703.929 991.521 317.844 1246.05 178.441C1252.15 175.1 1258.27 171.747 1264.6 168.715C1457.63 76.5199 1715.9 169.934 1894.87 257.649" stroke="white" stroke-width="1.8932" stroke-miterlimit="10"/>
<path d="M-378.035 857.626C-134.806 643.769 14.3747 441.363 135.76 371.905C182.35 286.647 181.15 215.174 239.889 224.244C280.49 230.505 332.524 277.03 413.118 358.274C666.18 613.273 731.512 747.803 840.372 733.616C1016.84 710.627 967.962 309.527 1223.25 162.567C1229.43 159.013 1235.6 155.46 1242.07 152.244C1436.8 54.6253 1703.72 149.451 1888.31 238.27" stroke="white" stroke-width="1.8932" stroke-miterlimit="10"/>
<path d="M-392.616 841.666C-159.765 634.765 -4.79936 435.721 126.738 375.118C176.568 299.072 182.388 237.642 241.234 249.884C282.201 258.409 332.946 303.834 409.134 380.593C649.644 622.781 717.394 758.302 824.939 742.77C1001.77 717.228 944.326 301.086 1200.43 146.633C1206.67 142.864 1212.97 139.106 1219.53 135.667C1415.97 32.6734 1691.53 128.853 1881.74 218.798" stroke="white" stroke-width="1.8932" stroke-miterlimit="10"/>
<path d="M-407.174 825.702C-184.726 625.761 -23.9484 430.078 117.737 378.364C170.801 311.531 183.627 260.146 242.585 275.552C283.917 286.355 333.377 330.654 405.159 402.93C633.071 632.324 703.28 768.818 809.523 751.944C986.726 723.819 920.669 292.617 1177.61 130.722C1183.94 126.735 1190.32 122.774 1196.96 119.14C1395.13 10.7571 1679.32 108.342 1875.18 199.359" stroke="white" stroke-width="1.8932" stroke-miterlimit="10"/>
<path d="M-421.764 809.745C-209.688 616.758 -43.0952 424.429 108.729 381.592C165.033 323.971 184.854 282.66 243.937 301.232C285.616 314.322 333.81 357.486 401.157 425.291C616.493 641.88 689.128 779.302 794.082 761.13C971.64 730.389 896.97 284.193 1154.78 114.822C1161.18 110.624 1167.65 106.466 1174.39 102.626C1374.31 -11.1173 1667.1 87.8269 1868.55 179.95" stroke="white" stroke-width="1.8932" stroke-miterlimit="10"/>
<path d="M-436.342 793.784C-234.651 607.754 -62.2481 418.78 99.7158 384.827C159.267 336.415 186.059 305.189 245.281 326.883C287.298 342.275 334.231 384.301 397.203 447.614C599.955 651.394 675.018 789.744 778.691 770.284C956.594 736.888 873.267 275.656 1132 98.9195C1138.47 94.5045 1145.03 90.1491 1151.9 86.1011C1353.55 -33.0071 1654.93 67.2702 1861.99 160.475" stroke="white" stroke-width="1.8932" stroke-miterlimit="10"/>
<path d="M-450.922 777.826C-259.608 598.757 -81.3977 413.156 90.7065 388.063C153.457 348.855 187.247 327.737 246.628 352.553C288.965 370.252 334.658 411.123 393.214 469.937C583.39 660.912 660.874 800.167 763.262 779.431C941.5 743.342 849.5 267.108 1109.17 82.9586C1115.71 78.3214 1122.36 73.7741 1129.31 69.5278C1332.78 -54.8629 1642.75 46.7346 1855.42 141.065" stroke="white" stroke-width="1.8932" stroke-miterlimit="10"/>
<path d="M-465.504 761.846C-284.575 589.733 -100.559 407.471 81.6912 391.284C147.715 361.291 188.413 350.263 247.959 378.199C290.61 398.183 335.077 437.925 389.227 492.279C566.825 670.443 646.728 810.593 747.84 788.609C926.414 749.807 825.717 258.583 1086.37 67.0825C1092.98 62.2245 1099.73 57.4837 1106.77 53.0328C1312.03 -76.7006 1630.54 26.2147 1848.85 121.661" stroke="white" stroke-width="1.8932" stroke-miterlimit="10"/>
<path d="M-480.081 745.89C-309.531 580.775 -103.56 472.846 72.6905 394.539C138.643 365.235 189.579 372.838 249.314 403.888C292.268 426.189 335.514 464.771 385.258 514.641C550.277 680.013 632.582 821.019 732.427 797.804C911.298 756.21 801.89 250.011 1063.55 51.1531C1070.22 46.0856 1077.08 41.1426 1084.21 36.4886C1291.29 -98.5481 1618.31 5.67519 1842.26 102.197" stroke="white" stroke-width="1.8932" stroke-miterlimit="10"/>
<path d="M-494.655 729.936C-334.482 571.733 -138.887 413.071 63.6834 397.762C136.759 392.243 190.719 395.381 250.663 429.546C293.908 454.167 335.937 491.582 381.276 536.973C533.725 689.538 618.417 831.393 717.007 806.961C896.165 762.566 778.033 241.421 1040.73 35.2318C1047.48 29.9404 1054.44 24.8224 1061.67 19.9509C1270.85 -119.999 1606.14 -14.8673 1835.71 82.7586" stroke="white" stroke-width="1.8932" stroke-miterlimit="10"/>
<path d="M-509.232 713.98C-359.456 562.737 -158.627 399.091 54.6774 401C130.34 401.682 191.848 417.942 252.011 455.213C295.536 482.158 336.368 518.412 377.295 559.315C517.169 699.081 604.353 842.159 701.589 816.139C880.827 768.176 753.833 232.492 1017.92 19.3237C1024.72 13.8024 1031.79 8.50256 1039.11 3.42404C1250.01 -142.009 1593.94 -35.407 1829.11 63.322" stroke="white" stroke-width="1.8932" stroke-miterlimit="10"/>
<path d="M-523.81 698.026C-384.416 553.745 -177.159 384.916 45.6665 404.247C381.582 433.407 524.475 870.43 686.176 825.312C870.508 773.881 722.974 195.29 1016.57 -13.1027C1229.17 -164.01 1581.77 -55.9457 1822.54 43.8992" stroke="white" stroke-width="1.8932" stroke-miterlimit="10"/>
</g>
</g>
<defs>
<clipPath id="clip0_819_449">
<rect width="1440" height="741" fill="white"/>
</clipPath>
</defs>
</svg>
